<?xml version="1.0" encoding="UTF-8"?>
<svg width="200px" height="200px" viewBox="0 0 200 200" version="1.1" xmlns="http://www.w3.org/2000/svg" xmlns:xlink="http://www.w3.org/1999/xlink">
    <!-- Generator: Sketch 52.6 (67491) - http://www.bohemiancoding.com/sketch -->
    <title>Group</title>
    <desc>Created with Sketch.</desc>
    <defs>
        <rect id="path-1" x="0" y="0" width="200" height="199.599225" rx="4"></rect>
        <mask id="mask-2" maskContentUnits="userSpaceOnUse" maskUnits="objectBoundingBox" x="0" y="0" width="200" height="199.599225" fill="white">
            <use xlink:href="#path-1"></use>
        </mask>
    </defs>
    <g id="Business/Store-Setup" stroke="none" stroke-width="1" fill="none" fill-rule="evenodd">
        <g id="Stores-Details-Copy-5" transform="translate(-788.000000, -75.000000)">
            <g id="Store-details/add-store-form" transform="translate(427.000000, 75.000000)">
                <g id="Group" transform="translate(361.000000, 0.000000)">
                    <g id="form" stroke="#D0D6E3" stroke-dasharray="4,4" stroke-width="2">
                        <g id="logo-area">
                            <use id="outline" mask="url(#mask-2)" xlink:href="#path-1"></use>
                        </g>
                    </g>
                    <path d="M138.930699,125.150474 C138.651752,124.661166 138.085141,124.352941 137.468407,124.352941 L62.5319459,124.352941 C61.9130325,124.352941 61.3507802,124.661166 61.0696541,125.150474 L56.1074508,133.909848 C55.8568345,134.356775 55.8829858,134.888463 56.1815461,135.316125 C56.4757479,135.741861 57.0053111,136 57.5719219,136 L142.428431,136 C142.997221,136 143.524605,135.741861 143.818807,135.316125 C144.117367,134.888463 144.143518,134.356775 143.890723,133.909848 L138.930699,125.150474 L138.930699,125.150474 Z M60.7789474,132.823529 L64.1001348,126.470588 L136.872636,126.470588 L140.189474,132.823529 L60.7789474,132.823529 L60.7789474,132.823529 Z M66.7203617,100 C71.4631435,100 75.6230983,97.5819708 77.8135745,94.0185594 C79.9953841,97.5819708 84.1596722,100 88.9067872,100 C93.6517357,100 97.8116905,97.5819708 99.9978334,94.0185594 C102.179643,97.5819708 106.341764,100 111.091046,100 C115.838161,100 120.002449,97.5839593 122.186426,94.0205479 C124.372568,97.5819708 128.532523,100 133.281805,100 C140.293062,100 146,94.764251 146,88.32943 L145.9935,87.7965091 C145.9805,87.6593018 145.969667,87.5300486 145.963167,87.4246575 C146.008667,86.9434379 145.753003,86.0625276 145.05101,83.6246133 L139.422071,68.1798498 C138.756912,65.8353955 136.16994,64 133.530969,64 L66.4755311,64 C63.8322265,64 61.2452546,65.8353955 60.6169281,68.0744587 L55.1721539,82.731772 C54.8384909,83.9169244 54.2664971,85.943217 54.2079977,86.2355281 C54.1646649,86.4642068 54.0888324,87.048829 54.0801658,87.048829 L54.0801658,87.0368979 L54,88.32943 C54,94.764251 59.7047713,100 66.7203617,100 L66.7203617,100 Z M56.9052632,88.7340167 C56.9467571,88.3111603 56.9773316,87.9472598 56.9773316,87.9472598 L56.9773316,87.991985 C56.9860672,87.9248972 57.0450322,87.5366011 57.0712389,87.4085244 C57.1280201,87.150338 57.5364079,85.6764394 57.9535312,84.1557827 L63.4394674,69.1708079 C63.7386606,68.1075679 65.0315245,67.1764706 66.21301,67.1764706 L133.802277,67.1764706 C134.979395,67.1764706 136.276627,68.1075679 136.60421,69.2704231 L142.277961,85.0624844 C142.644855,86.3493504 142.941864,87.4532496 143.044507,87.8862709 C143.044507,88.1058309 143.06853,88.3416547 143.094737,88.5937422 L143.094737,89.0003349 C143.094737,93.8977443 138.812125,97.8823529 133.55113,97.8823529 C128.327261,97.8823529 124.042465,93.9221398 124.005339,89.0592909 C123.996603,88.2217099 123.267183,87.546766 122.36742,87.546766 C121.465472,87.546766 120.733869,88.2237428 120.729501,89.0613238 C120.692375,93.9241728 116.407579,97.8823529 111.18371,97.8823529 C105.959841,97.8823529 101.681597,93.9241728 101.644471,89.0613238 C101.637919,88.2237428 100.906315,87.546766 100.006552,87.546766 C99.1067883,87.546766 98.3773684,88.2217099 98.3686328,89.0592909 C98.324955,93.9221398 94.0445271,97.8823529 88.8228418,97.8823529 C83.5989726,97.8823529 79.3163608,93.9241728 79.2814185,89.0613238 C79.2726829,88.2237428 78.5432631,87.546766 77.6434997,87.546766 L77.6413158,87.546766 C76.7415524,87.546766 76.0143164,88.2217099 76.0055808,89.0592909 C75.9640869,93.9221398 71.6814751,97.8823529 66.4597898,97.8823529 C61.1966105,97.8823529 56.9139987,93.8977443 56.9139987,89.0003349 L56.9052632,88.7340167 L56.9052632,88.7340167 Z M135.347368,104.677138 L135.347368,119.675804 C135.347368,120.504172 135.996211,121.176471 136.8,121.176471 C137.601853,121.176471 138.252632,120.504172 138.252632,119.675804 L138.252632,104.677138 C138.252632,103.848769 137.601853,103.176471 136.8,103.176471 C135.996211,103.176471 135.347368,103.848769 135.347368,104.677138 L135.347368,104.677138 Z M61.7473684,104.677138 L61.7473684,119.675804 C61.7473684,120.504172 62.3981474,121.176471 63.1980632,121.176471 C64.0018526,121.176471 64.6526316,120.504172 64.6526316,119.675804 L64.6526316,104.677138 C64.6526316,103.848769 64.0018526,103.176471 63.1980632,103.176471 C62.3981474,103.176471 61.7473684,103.848769 61.7473684,104.677138 L61.7473684,104.677138 Z" id="Fill-43-Copy" fill="#7C7C7C"></path>
                </g>
            </g>
        </g>
    </g>
</svg>