<?xml version="1.0" encoding="UTF-8"?>
<svg width="20px" height="20px" viewBox="0 0 20 20" version="1.1" xmlns="http://www.w3.org/2000/svg" xmlns:xlink="http://www.w3.org/1999/xlink">
    <!-- Generator: Sketch 52.6 (67491) - http://www.bohemiancoding.com/sketch -->
    <title>discount</title>
    <desc>Created with Sketch.</desc>
    <g id="settings" stroke="none" stroke-width="1" fill="none" fill-rule="evenodd">
        <g id="Settings" transform="translate(-101.000000, -596.000000)" fill="#1B2A6A">
            <g id="discount" transform="translate(101.000000, 596.000000)">
                <path d="M14.6026953,5.39730469 C14.3706641,5.16527344 14.0060937,5.16527344 13.7740625,5.39730469 C13.5420313,5.62933594 13.5420313,5.99386719 13.7740625,6.2259375 C14.0060937,6.45796875 14.3706641,6.45796875 14.6026953,6.2259375 C14.8347266,5.99390625 14.8347266,5.62933594 14.6026953,5.39730469 Z" id="Path"></path>
                <path d="M8.80222656,7.88320312 C8.57019531,7.65117188 8.205625,7.65117188 7.97359375,7.88320312 C7.74160156,8.11519531 7.7415625,8.47980469 7.97359375,8.71183594 C8.205625,8.94390625 8.57023438,8.94382812 8.80222656,8.71183594 C9.03425781,8.47980469 9.03425781,8.11523438 8.80222656,7.88320312 Z" id="Path"></path>
                <path d="M9.63085938,13.6837109 C9.39882812,13.4516797 9.03425781,13.4516797 8.80222656,13.6837109 C8.57023438,13.9157031 8.57019531,14.2803125 8.80222656,14.5123437 C9.03425781,14.744375 9.39886719,14.7443359 9.63085938,14.5123437 C9.86292969,14.2802734 9.86292969,13.9157422 9.63085938,13.6837109 Z" id="Path"></path>
                <path d="M19.56625,8.33898438 L18.2404687,3.03566406 C18.2073047,2.91964844 18.1659375,2.81191406 18.1161719,2.7125 L15.7710937,5.05757813 C16.0777344,5.7121875 15.97,6.5159375 15.4313672,7.05457031 C14.7436328,7.74230469 13.6332422,7.74234375 12.9454297,7.05457031 C12.2576562,6.36679688 12.2576953,5.25636719 12.9454297,4.56863281 C13.4840625,4.03 14.2878125,3.92226563 14.9424219,4.22890625 L17.2875,1.88382813 C17.1880859,1.8340625 17.0803516,1.79269531 16.9643359,1.75953125 L11.6610156,0.43375 C11.0644531,0.284609375 10.4264062,0.45859375 9.9871875,0.897773438 L0.515820312,10.3691406 C-0.171914063,11.056875 -0.171953125,12.1672656 0.515820312,12.8550781 L7.14496094,19.4842188 C7.83273437,20.1719922 8.94316406,20.1719531 9.63089844,19.4842188 L19.1022266,10.0128125 C19.5414453,9.57359375 19.7154297,8.93554688 19.56625,8.33898438 Z M7.14496094,7.05457031 C7.83273438,6.36679688 8.94308594,6.36679688 9.63089844,7.05457031 C10.3187109,7.74234375 10.3186719,8.85269531 9.63089844,9.54050781 C8.94316406,10.2282422 7.83277344,10.2282813 7.14496094,9.54050781 C6.45714844,8.85273438 6.45722656,7.74230469 7.14496094,7.05457031 Z M10.4595312,15.3409766 C9.77175781,16.0287109 8.66136719,16.02875 7.97359375,15.3409766 C7.28582031,14.6532031 7.28585938,13.5427734 7.97359375,12.8550391 C8.66136719,12.1672656 9.77171875,12.1672656 10.4595312,12.8550391 C11.1473047,13.5428125 11.1473047,14.6531641 10.4595312,15.3409766 Z M12.5958594,11.3660938 L5.13808594,12.1947266 C4.95398438,12.2145703 4.78039063,12.1478125 4.65863281,12.0260156 C4.56800781,11.9353906 4.50609375,11.8144141 4.49070313,11.6768359 C4.45550781,11.3551953 4.68695313,11.0654687 5.00859375,11.0294531 L12.4663672,10.2008203 C12.7876172,10.1668359 13.0777344,10.3970703 13.11375,10.7187109 C13.1489453,11.0403906 12.9175391,11.3300781 12.5958594,11.3660938 Z" id="Shape" fill-rule="nonzero"></path>
                <path d="M19.8259766,0.174023437 C19.5939453,-0.0580078125 19.229375,-0.0580078125 18.9973437,0.174023437 L17.2875,1.88386719 C17.6603906,2.05789062 17.9503906,2.34789062 18.1161328,2.7125 L19.8259766,1.00265625 C20.0580078,0.770625 20.0580078,0.406054687 19.8259766,0.174023437 Z" id="Path"></path>
            </g>
        </g>
    </g>
</svg>
